PathFileType   4   (X/Y/Z)
DataRate	CameraRate	NumFrames	NumMarkers	Units	OrigDataRate	OrigDataStartFrame	OrigNumFrames
120.0	120.0	5	37	mm	120.0	121	161
Frame#	Time	midhip	hip_r	hip_l	knee_r	knee_l	ankle_r	ankle_l	midasis	asis_r	asis_l	psis_r	psis_l	epicondLat_r	epicondLat_l	epicondMed_r	epicondMed_l	malleolusLat_r	malleolusLat_l	malleolusMedv_r	malleolusMedv_l	neck	subclavicle_r	subclavicle_l	sternalnotch	xyphoidprocess	thighwand_r	thighwand_l	upperleg1_r	upperleg1_l	upperleg2_r	upperleg2_l	shankwand_r	shankwand_l	lowerleg1_r	lowerleg1_l	toe_r	toe_l
 	 	X1	Y1	Z1	X2	Y2	Z2	X3	Y3	Z3	X4	Y4	Z4	X5	Y5	Z5	X6	Y6	Z6	X7	Y7	Z7	X8	Y8	Z8	X9	Y9	Z9	X10	Y10	Z10	X11	Y11	Z11	X12	Y12	Z12	X13	Y13	Z13	X14	Y14	Z14	X15	Y15	Z15	X16	Y16	Z16	X17	Y17	Z17	X18	Y18	Z18	X19	Y19	Z19	X20	Y20	Z20	X21	Y21	Z21	X22	Y22	Z22	X23	Y23	Z23	X24	Y24	Z24	X25	Y25	Z25	X26	Y26	Z26	X27	Y27	Z27	X28	Y28	Z28	X29	Y29	Z29	X30	Y30	Z30	X31	Y31	Z31	X32	Y32	Z32	X33	Y33	Z33	X34	Y34	Z34	X35	Y35	Z35	X36	Y36	Z36	X37	Y37	Z37

	121	1.27500	1996.100	851.403	-234.788	2003.436	830.704	-170.540	1984.661	829.895	-286.499	1998.518	456.587	-190.680	2052.816	469.025	-339.542	1921.520	64.382	-189.873	1867.770	111.719	-327.509	2054.817	909.538	-232.876	2062.436	909.202	-132.704	2047.198	909.874	-333.047	1900.475	940.277	-194.247	1894.171	940.728	-247.934	2018.230	453.568	-139.423	2056.680	477.644	-393.217	1973.610	454.301	-231.687	2052.845	449.072	-295.843	1923.751	64.023	-151.439	1863.103	112.850	-365.708	1930.134	78.370	-222.924	1892.709	120.348	-306.308	1948.368	1349.691	-214.289	2049.722	1276.522	-172.298	2043.456	1276.236	-279.702	2031.492	1287.485	-230.289	2084.378	1120.158	-231.925	2132.720	626.885	-209.982	2158.694	650.644	-309.570	2071.689	673.669	-144.666	2080.455	687.329	-360.751	2062.351	589.427	-146.830	2095.265	600.982	-366.331	1963.809	180.031	-83.408	1874.129	242.301	-425.917	1955.370	188.940	-123.754	1894.003	239.924	-387.613	2039.090	39.047	-197.685	1971.884	58.066	-361.236
	122	1.28333	1999.543	851.341	-234.914	2006.893	830.592	-170.756	1988.161	829.882	-286.723	2000.331	456.443	-190.742	2060.746	469.839	-339.604	1921.708	64.638	-189.864	1883.144	108.878	-327.528	2058.295	909.481	-233.005	2065.875	909.059	-132.842	2050.714	909.903	-333.167	1903.864	940.207	-194.510	1897.527	940.691	-248.186	2019.879	453.359	-139.426	2064.670	478.512	-393.266	1976.809	453.205	-229.596	2059.932	450.099	-295.302	1923.879	64.288	-151.427	1878.397	109.936	-365.719	1930.202	78.492	-222.925	1907.811	117.970	-306.383	1952.314	1349.694	-214.516	2053.552	1276.404	-172.544	2047.183	1276.116	-279.976	2035.266	1287.358	-230.540	2087.905	1119.979	-232.206	2135.412	626.195	-209.732	2164.220	652.629	-309.304	2074.378	673.335	-144.666	2085.758	688.442	-360.853	2065.348	589.588	-146.081	2101.308	602.073	-366.143	1964.291	180.070	-83.419	1886.673	239.560	-425.809	1955.884	188.979	-123.826	1906.778	237.505	-387.602	2039.153	39.031	-197.665	1988.232	57.396	-361.556
	123	1.29167	2002.949	851.211	-235.012	2010.314	830.484	-170.986	1991.664	829.865	-286.966	2002.145	456.316	-190.812	2068.531	470.671	-339.556	1921.876	64.883	-189.853	1898.673	106.041	-327.619	2061.761	909.420	-233.136	2069.270	908.919	-132.979	2054.252	909.920	-333.293	1907.243	940.146	-194.835	1900.944	940.641	-248.519	2021.523	453.170	-139.435	2072.546	479.385	-393.205	1979.002	453.232	-230.038	2067.483	450.850	-295.555	1923.990	64.543	-151.413	1893.856	107.035	-365.804	1930.231	78.613	-222.926	1923.199	115.650	-306.495	1956.185	1349.670	-214.757	2057.354	1276.279	-172.790	2050.866	1275.961	-280.259	2039.021	1287.218	-230.819	2091.437	1119.788	-232.454	2138.102	625.519	-209.486	2169.635	654.552	-308.926	2077.047	672.982	-144.634	2091.006	689.488	-360.780	2067.719	589.239	-146.126	2107.504	603.366	-366.077	1964.773	180.120	-83.428	1899.299	236.814	-425.734	1956.444	189.114	-123.758	1919.592	235.085	-387.627	2039.219	39.013	-197.641	2004.704	56.725	-361.825
	124	1.30000	2006.493	851.265	-235.236	2013.701	830.378	-171.234	1995.174	829.843	-287.234	2003.949	456.206	-190.889	2076.155	471.507	-339.401	1922.016	65.106	-189.844	1914.344	103.224	-327.783	2065.220	909.355	-233.272	2072.622	908.782	-133.117	2057.818	909.928	-333.428	1910.616	940.091	-195.224	1904.398	940.583	-248.918	2023.160	453.004	-139.452	2080.292	480.250	-393.036	1979.707	454.499	-232.617	2075.009	451.485	-295.961	1924.080	64.776	-151.400	1909.457	104.166	-365.960	1930.277	78.728	-222.936	1938.849	113.329	-306.650	1959.956	1349.551	-215.063	2061.155	1276.117	-173.086	2054.532	1275.758	-280.564	2042.763	1287.070	-231.129	2095.080	1119.583	-232.736	2140.794	624.857	-209.260	2174.946	656.401	-308.436	2079.700	672.593	-144.601	2096.226	690.478	-360.570	2069.277	588.499	-146.832	2113.683	604.614	-365.965	1965.260	180.182	-83.435	1911.978	234.077	-425.677	1957.090	189.379	-123.536	1932.465	232.728	-387.604	2039.289	38.995	-197.613	2021.280	56.072	-362.072
	125	1.30833	2010.093	851.394	-235.525	2017.058	830.274	-171.505	1998.697	829.818	-287.532	2005.735	456.112	-190.976	2083.603	472.332	-339.145	1922.129	65.305	-189.837	1930.138	100.445	-328.013	2068.672	909.288	-233.418	2075.930	908.648	-133.260	2061.414	909.928	-333.576	1913.985	940.038	-195.678	1907.866	940.523	-249.371	2024.779	452.856	-139.481	2087.894	481.092	-392.765	1980.863	455.197	-233.914	2082.373	452.184	-295.871	1924.153	64.984	-151.392	1925.177	101.350	-366.182	1930.435	78.870	-222.941	1954.563	111.006	-306.867	1963.614	1349.376	-215.416	2064.904	1275.947	-173.432	2058.218	1275.549	-280.926	2046.492	1286.917	-231.471	2098.833	1119.401	-233.057	2143.492	624.213	-209.060	2180.165	658.165	-307.841	2082.293	672.222	-144.647	2101.386	691.393	-360.352	2071.068	588.038	-147.168	2119.782	605.729	-365.660	1965.755	180.260	-83.440	1924.683	231.359	-425.628	1957.701	189.614	-123.364	1945.289	230.385	-387.549	2039.363	38.977	-197.581	2037.940	55.467	-362.325
